<svg width="15" height="22" viewBox="0 0 15 22" fill="none" xmlns="http://www.w3.org/2000/svg">
<g id="bolt">
<path id="Vector" d="M6.49794 21.488C6.4101 21.504 6.32008 21.504 6.23224 21.488C6.04051 21.4301 5.87294 21.3112 5.75503 21.1493C5.63712 20.9874 5.57532 20.7915 5.57904 20.5912V20.4695L6.57544 13.4393H1.77057C1.60854 13.4394 1.44957 13.3951 1.31097 13.3112C1.17238 13.2273 1.05946 13.1069 0.984522 12.9632C0.899857 12.8189 0.855225 12.6545 0.855225 12.4872C0.855225 12.3198 0.899857 12.1555 0.984522 12.0111L3.19875 8.1473L7.73791 0.928922C7.83878 0.758605 7.99445 0.627542 8.17946 0.557158C8.36447 0.486773 8.56788 0.481229 8.75645 0.541433C8.94818 0.599308 9.11575 0.718233 9.23366 0.880112C9.35157 1.04199 9.41337 1.23796 9.40965 1.43819V1.55998L8.41325 8.59014H13.2292C13.3912 8.59 13.5502 8.63431 13.6888 8.71825C13.8274 8.80219 13.9403 8.92254 14.0152 9.0662C14.0999 9.21057 14.1445 9.3749 14.1445 9.54226C14.1445 9.70962 14.0999 9.87395 14.0152 10.0183L11.801 13.8821L7.26185 21.1005C7.17844 21.2252 7.06436 21.3263 6.93058 21.3942C6.7968 21.462 6.64782 21.4943 6.49794 21.488ZM2.99947 11.7343H7.42792C7.55005 11.7358 7.67069 11.7613 7.78297 11.8094C7.89525 11.8574 7.99696 11.9271 8.08229 12.0145C8.16762 12.1019 8.2349 12.2053 8.28029 12.3186C8.32568 12.432 8.34828 12.5533 8.34682 12.6754V12.7972L7.69363 17.3806L10.4614 12.9522L12.0557 10.2065H7.6272C7.50507 10.2051 7.38442 10.1796 7.27215 10.1315C7.15987 10.0834 7.05816 10.0137 6.97283 9.92634C6.8875 9.83895 6.82022 9.73561 6.77483 9.62222C6.72944 9.50883 6.70683 9.38761 6.70829 9.26548V9.1437L7.36149 4.56025L4.59371 8.9887L2.99947 11.7343Z" fill="#3B82F6"/>
</g>
</svg>
