<svg width="17" height="22" viewBox="0 0 17 22" fill="none" xmlns="http://www.w3.org/2000/svg">
<g id="bookmark">
<path id="Vector" d="M15.4 21.5C15.2169 21.4964 15.0383 21.4424 14.884 21.344L8.49995 16.892L2.11595 21.344C1.97494 21.4298 1.81304 21.4753 1.64795 21.4753C1.48287 21.4753 1.32096 21.4298 1.17995 21.344C1.04185 21.2728 0.92484 21.1666 0.840611 21.0361C0.756381 20.9055 0.70788 20.7552 0.699951 20.6V3.8C0.699951 2.92479 1.04763 2.08542 1.6665 1.46655C2.28537 0.847677 3.12474 0.5 3.99995 0.5H13C13.8752 0.5 14.7145 0.847677 15.3334 1.46655C15.9523 2.08542 16.3 2.92479 16.3 3.8V20.6C16.3006 20.7634 16.2561 20.9238 16.1714 21.0635C16.0867 21.2033 15.9651 21.3169 15.82 21.392C15.6912 21.4626 15.5468 21.4998 15.4 21.5ZM8.49995 14.9C8.68385 14.8981 8.86393 14.9525 9.01595 15.056L14.5 18.872V3.8C14.5 3.40218 14.3419 3.02064 14.0606 2.73934C13.7793 2.45804 13.3978 2.3 13 2.3H3.99995C3.60213 2.3 3.2206 2.45804 2.93929 2.73934C2.65799 3.02064 2.49995 3.40218 2.49995 3.8V18.872L7.98395 15.056C8.13597 14.9525 8.31605 14.8981 8.49995 14.9Z" fill="#EB1111"/>
</g>
</svg>
