<svg width="48" height="49" viewBox="0 0 48 49" fill="none" xmlns="http://www.w3.org/2000/svg">
<g id="envelope">
<path id="Vector" d="M43.2 0.25H4.8C3.52918 0.258214 2.31246 0.837765 1.41384 1.8629C0.515225 2.88804 0.00720028 4.27607 0 5.72581V43.2742C0.00720028 44.7239 0.515225 46.112 1.41384 47.1371C2.31246 48.1622 3.52918 48.7418 4.8 48.75H43.2C44.4708 48.7418 45.6875 48.1622 46.5862 47.1371C47.4848 46.112 47.9928 44.7239 48 43.2742V5.72581C47.9928 4.27607 47.4848 2.88804 46.5862 1.8629C45.6875 0.837765 44.4708 0.258214 43.2 0.25ZM4.8 4.94355H43.2C43.3819 4.94355 43.5563 5.02596 43.6849 5.17267C43.8135 5.31937 43.8857 5.51834 43.8857 5.72581V10.5445L24 21.8716L4.11429 10.5445V5.72581C4.11429 5.51834 4.18653 5.31937 4.31513 5.17267C4.44372 5.02596 4.61814 4.94355 4.8 4.94355ZM43.2 44.0565H4.8C4.61814 44.0565 4.44372 43.974 4.31513 43.8273C4.18653 43.6806 4.11429 43.4817 4.11429 43.2742V15.77L23.0674 26.5965C23.357 26.7617 23.6763 26.8477 24 26.8477C24.3237 26.8477 24.643 26.7617 24.9326 26.5965L43.8857 15.77V43.2742C43.8857 43.4817 43.8135 43.6806 43.6849 43.8273C43.5563 43.974 43.3819 44.0565 43.2 44.0565Z" fill="#1B53E1"/>
</g>
</svg>
