<svg width="31" height="32" viewBox="0 0 31 32" fill="none" xmlns="http://www.w3.org/2000/svg">
<path id="icon" fill-rule="evenodd" clip-rule="evenodd" d="M21.2205 6.18211L15.4942 3.11148L3.9683 9.28678L1.0795 7.73444L15.4942 0L24.1239 4.62977L21.2205 6.18211ZM15.4994 12.3569L27.0179 6.18164L29.9214 7.73397L15.4994 15.4616L6.87695 10.8386L9.77308 9.28631L15.4994 12.3569ZM3.39589 16.572L0.499756 15.0196V24.2656L14.9144 32V28.8953L3.39589 22.7132V16.572ZM12.0183 18.0905L0.499756 11.9152V8.81055L14.9144 16.5382V25.7909L12.0183 24.2318V18.0905ZM24.7083 15.0187V11.9141L16.0786 16.537V31.9991L18.9747 30.4468V18.0894L24.7083 15.0187ZM27.5966 22.7135V10.3629L30.5001 8.81055V24.2658L21.8704 28.8956V25.7909L27.5966 22.7135Z" fill="#212121"/>
</svg>
