<svg width="48" height="49" viewBox="0 0 48 49" fill="none" xmlns="http://www.w3.org/2000/svg">
<g id="logo" clip-path="url(#clip0_4_1689)">
<g id="excel">
<rect id="rectangle" x="11.6006" y="2.25" width="36" height="42" rx="2" fill="#2FB776"/>
<path id="rectangle_2" d="M11.6006 33.75H47.6006V42.25C47.6006 43.3546 46.7052 44.25 45.6006 44.25H13.6006C12.496 44.25 11.6006 43.3546 11.6006 42.25V33.75Z" fill="url(#paint0_linear_4_1689)"/>
<rect id="rectangle_3" x="29.6006" y="23.25" width="18" height="10.5" fill="#229C5B"/>
<rect id="rectangle_4" x="29.6006" y="12.75" width="18" height="10.5" fill="#27AE68"/>
<path id="rectangle_5" d="M11.6006 4.25C11.6006 3.14543 12.496 2.25 13.6006 2.25H29.6006V12.75H11.6006V4.25Z" fill="#1D854F"/>
<rect id="rectangle_6" x="11.6006" y="12.75" width="18" height="10.5" fill="#197B43"/>
<rect id="rectangle_7" x="11.6006" y="23.25" width="18" height="10.5" fill="#1B5B38"/>
<path id="rectangle_8" d="M11.6006 15.75C11.6006 14.0931 12.9437 12.75 14.6006 12.75H26.6006C28.2574 12.75 29.6006 14.0931 29.6006 15.75V36.75C29.6006 38.4069 28.2574 39.75 26.6006 39.75H11.6006V15.75Z" fill="black" fill-opacity="0.3"/>
<rect id="rectangle_9" x="-0.399414" y="9.75" width="27" height="27" rx="2" fill="url(#paint1_linear_4_1689)"/>
<path id="X" d="M19.1006 30.75L14.8738 23.1L18.915 15.75H15.6161L13.1212 20.4429L10.6676 15.75H7.26553L11.3274 23.1L7.10059 30.75H10.3996L13.0594 25.7786L15.6985 30.75H19.1006Z" fill="white"/>
</g>
</g>
<defs>
<linearGradient id="paint0_linear_4_1689" x1="11.6006" y1="39" x2="47.6006" y2="39" gradientUnits="userSpaceOnUse">
<stop stop-color="#163C27"/>
<stop offset="1" stop-color="#2A6043"/>
</linearGradient>
<linearGradient id="paint1_linear_4_1689" x1="-0.399414" y1="23.25" x2="26.6006" y2="23.25" gradientUnits="userSpaceOnUse">
<stop stop-color="#185A30"/>
<stop offset="1" stop-color="#176F3D"/>
</linearGradient>
<clipPath id="clip0_4_1689">
<rect width="48" height="48" fill="white" transform="translate(0 0.25)"/>
</clipPath>
</defs>
</svg>
