<svg width="48" height="49" viewBox="0 0 48 49" fill="none" xmlns="http://www.w3.org/2000/svg">
<path id="Vector" d="M40.8255 7.21013C38.625 4.9944 36.0055 3.23804 33.1196 2.04319C30.2336 0.848333 27.1388 0.238841 24.015 0.250155C19.839 0.254227 15.7373 1.35474 12.1207 3.44147C8.50415 5.52821 5.49967 8.52792 3.40815 12.1402C1.31663 15.7525 0.211497 19.8505 0.203416 24.024C0.195334 28.1974 1.28459 32.2997 3.3621 35.92L0 48.25L12.6079 44.95C16.0893 46.8857 20.0012 47.9172 23.985 47.95C30.3179 47.9502 36.3946 45.4505 40.8923 40.995C45.39 36.5395 47.9446 30.4888 48 24.1601C47.9789 21.002 47.3343 17.8791 46.1031 14.9705C44.872 12.0619 43.0785 9.42471 40.8255 7.21013ZM24.015 43.84C20.4658 43.8423 16.9816 42.8889 13.9287 41.08L13.2083 40.63L5.73358 42.61L7.71482 35.32L7.23452 34.57C4.68068 30.45 3.72756 25.5371 4.55572 20.7618C5.38388 15.9865 7.93579 11.6806 11.728 8.65981C15.5203 5.63901 20.2895 4.11312 25.1321 4.3712C29.9747 4.62928 34.5545 6.6534 38.0037 10.0601C41.7741 13.7447 43.9325 18.7705 44.0075 24.0401C43.96 29.3078 41.8327 34.3437 38.0885 38.0518C34.3443 41.7599 29.2863 43.8402 24.015 43.84ZM34.8518 29.0201C34.2514 28.7201 31.3396 27.2801 30.7992 27.1001C30.2589 26.9201 29.8386 26.8001 29.4484 27.4001C28.8611 28.2043 28.2298 28.9755 27.5572 29.7101C27.227 30.1301 26.8668 30.1601 26.2664 29.7101C22.8435 28.3582 19.9916 25.8683 18.1914 22.6601C17.561 21.6101 18.7917 21.6701 19.9325 19.4201C20.0167 19.2579 20.0606 19.0778 20.0606 18.8951C20.0606 18.7124 20.0167 18.5323 19.9325 18.3701C19.9325 18.0701 18.5816 15.1301 18.1013 13.9601C17.621 12.7901 17.1407 12.9701 16.7505 12.9401H15.5797C15.2764 12.9448 14.9776 13.0141 14.7032 13.1434C14.4288 13.2728 14.1853 13.4591 13.9887 13.6901C13.3152 14.3446 12.7898 15.1359 12.4481 16.0104C12.1063 16.885 11.9561 17.8226 12.0075 18.7601C12.1957 21.0043 13.0415 23.1434 14.439 24.9101C16.9972 28.7374 20.503 31.8379 24.6154 33.91C26.7722 35.1684 29.2787 35.6946 31.7598 35.41C32.586 35.2462 33.3685 34.9104 34.0563 34.4246C34.7442 33.9387 35.322 33.3137 35.7523 32.59C36.151 31.7069 36.2764 30.7249 36.1126 29.7701C35.8424 29.4701 35.4522 29.3201 34.8518 29.0201Z" fill="#16A725"/>
</svg>
